/* XPM */
static char *result[] = {
/* columns rows colors chars-per-pixel */
"14 14 13 1 ",
"  c #21110D",
". c #201819",
"X c #342319",
"o c #242A3D",
"O c #503625",
"+ c #0D6F2F",
"@ c #0F6F31",
"# c #0E7030",
"$ c #107031",
"% c #755338",
"& c #414B66",
"* c #677598",
"= c #B6BEC8",
/* pixels */
"X            X",
" O**OOOOOO**O ",
" %==%%%%%%==% ",
" %==%%%%%%==% ",
" %==%%%%%%==% ",
" %==%%%%%%==% ",
" O**OOOOOO**O ",
" ****====**** ",
" X&&X&oo&X&&X ",
" X**O*oo*O**X ",
" X**O****O**X ",
" X**OOOOOO**X ",
". **OOOOOO** .",
"++++++++#$@+++"
};
