/* XPM */
static char *result[] = {
/* columns rows colors chars-per-pixel */
"14 14 10 1 ",
"  c #342319",
". c #503625",
"X c #755338",
"o c #0ED145",
"O c #0FD146",
"+ c #10D146",
"@ c #12D248",
"# c #14D249",
"$ c #D99945",
"% c #E9CE7C",
/* pixels */
"              ",
" XXXXXXXXXXXX ",
" .          . ",
" X . .... . X ",
" X ...... . X ",
" X ........ X ",
" X ........ X ",
" X ......%$ X ",
" X ......$$ X ",
" X .......  X ",
" X . ...... X ",
" X . ...... X ",
" X . .... . X ",
"oooOOOoO+#@Ooo"
};
