/* XPM */
static char *cGxheWVy[] = {
/* columns rows colors chars-per-pixel */
"28 28 61 1 ",
"  c #211D19",
". c #241F1B",
"X c #25201C",
"o c #28221E",
"O c #29241F",
"+ c #2A251F",
"@ c #302A24",
"# c #332C26",
"$ c #362F28",
"% c #373029",
"& c #39312A",
"* c #3B332C",
"= c #3C342D",
"- c #3D352E",
"; c #403830",
": c #413931",
"> c #423931",
", c #423A32",
"< c #433A32",
"1 c #443B33",
"2 c #453C33",
"3 c #463D34",
"4 c #473D35",
"5 c #473E35",
"6 c #483E35",
"7 c #483F36",
"8 c #4A4037",
"9 c #4B4138",
"0 c #4C4239",
"q c #4D433A",
"w c #4E443A",
"e c #4F443B",
"r c #4F453B",
"t c #50453C",
"y c #50463C",
"u c #51463C",
"i c #52473D",
"p c #54493F",
"a c #554A3F",
"s c #564B40",
"d c #574B41",
"f c #574C41",
"g c #584C41",
"h c #594E43",
"j c #5A4E43",
"k c #5B4F44",
"l c #5C5044",
"z c #5C5045",
"x c #5D5045",
"c c #5D5145",
"v c #5D5146",
"b c #5E5146",
"n c #5E5246",
"m c #5F5247",
"M c #5F5347",
"N c #605347",
"B c #605348",
"V c #605448",
"C c #615448",
"Z c #615549",
"A c #0ED145",
/* pixels */
"AAAAnnkknnBBkkNNAAAAAAAAAAAA",
"AAAAnnkknnBBkkNNAAAAAAAAAAAA",
"AABBnnnnZZkkkkkknnAAAAAAAAAA",
"AABBnnnnZZkkkkkknnAAAAAAAAAA",
"nnnnnnnnBBNNBBnnnnAAAAAAAAAA",
"nnnnnnnnBBNNBBnnnnAAAAAAAAAA",
"nnkkBBeeiittNNaa88AAAAAAAAAA",
"nnkkBBeeiittNNaa88AAAAAAAAAA",
"nnkkkknn  ooNN..OOAAAAAAnnnn",
"nnkkkknn  ooNN..OOAAAAAAnnnn",
"nnBBnnnnoooonn..##AAAAhhddZZ",
"nnBBnnnnoooonn..##AAAAhhddZZ",
"iiNNNNNNnnnnnn11nnAAMMsshhee",
"iiNNNNNNnnnnnn11nnAAMMsshhee",
"AAii44;;BB44<<66nnnnhhiieeAA",
"AAii44;;BB44<<66nnnnhhiieeAA",
"BBrrii4466--66ee-iddaaiiAAAA",
"BBrrii4466--66ee-iddaaiiAAAA",
"ee&&00zz11kk%%nn----==AAAAAA",
"ee&&00zz11kk%%nn----==AAAAAA",
"ZZnn$$%%1111$$4411&&;;AAAAAA",
"ZZnn$$%%1111$$4411&&;;AAAAAA",
"hhkkeennnnkkiinn<<@@AAAAAAAA",
"hhkkeennnnkkiinn<<@@AAAAAAAA",
"AAeennnnsseeeeeeAAAAAAAAAAAA",
"AAeennnnsseeeeeeAAAAAAAAAAAA",
"AAnnnnnnAAiieeeeAAAAAAAAAAAA",
"AAnnnnnnAAiieeeeAAAAAAAAAAAA"
};
